<svg width="16" height="16" viewBox="0 0 16 16" fill="none" xmlns="http://www.w3.org/2000/svg">
<path d="M8.86184 1.75L6.92117 3.16534C6.69082 3.33334 6.55459 3.6013 6.5546 3.88641C6.5546 4.37929 6.95416 4.77885 7.44704 4.77885H8.28503V6.50962H9.43864V10.5481H8.28503V12.2788H6.96336C6.41904 12.2788 5.97778 12.7201 5.97778 13.2644C5.97778 13.8087 6.41904 14.25 6.96336 14.25H11.9139C12.4582 14.25 12.8995 13.8087 12.8995 13.2644C12.8995 12.7201 12.4582 12.2788 11.9139 12.2788H10.6884V1.75H8.86184Z" fill="#407BFF"/>
<path d="M6.55461 5.93268H4.82418V7.66345H3.09375V9.39422H4.82418V11.125H6.55461V9.39422H8.28504V7.66345H6.55461V5.93268Z" fill="#84B2EC"/>
</svg>
